<svg id="visual" viewBox="0 0 960 540" width="960" height="540" xmlns="http://www.w3.org/2000/svg" xmlns:xlink="http://www.w3.org/1999/xlink" version="1.1"><rect x="0" y="0" width="960" height="540" fill="#FFFFFF"></rect><path d="M0 212L20 203.2C40 194.3 80 176.7 120 173.5C160 170.3 200 181.7 240 175.5C280 169.3 320 145.7 360 135.2C400 124.7 440 127.3 480 138C520 148.7 560 167.3 600 163.7C640 160 680 134 720 130C760 126 800 144 840 159.3C880 174.7 920 187.3 940 193.7L960 200L960 541L940 541C920 541 880 541 840 541C800 541 760 541 720 541C680 541 640 541 600 541C560 541 520 541 480 541C440 541 400 541 360 541C320 541 280 541 240 541C200 541 160 541 120 541C80 541 40 541 20 541L0 541Z" fill="#36e9ae"></path><path d="M0 225L20 235.8C40 246.7 80 268.3 120 277.7C160 287 200 284 240 285.2C280 286.3 320 291.7 360 286C400 280.3 440 263.7 480 251.3C520 239 560 231 600 238.5C640 246 680 269 720 281.5C760 294 800 296 840 286.5C880 277 920 256 940 245.5L960 235L960 541L940 541C920 541 880 541 840 541C800 541 760 541 720 541C680 541 640 541 600 541C560 541 520 541 480 541C440 541 400 541 360 541C320 541 280 541 240 541C200 541 160 541 120 541C80 541 40 541 20 541L0 541Z" fill="#00d5e6"></path><path d="M0 386L20 379.2C40 372.3 80 358.7 120 348C160 337.3 200 329.7 240 324.5C280 319.3 320 316.7 360 326.5C400 336.3 440 358.7 480 361.8C520 365 560 349 600 339.2C640 329.3 680 325.7 720 333.7C760 341.7 800 361.3 840 360.2C880 359 920 337 940 326L960 315L960 541L940 541C920 541 880 541 840 541C800 541 760 541 720 541C680 541 640 541 600 541C560 541 520 541 480 541C440 541 400 541 360 541C320 541 280 541 240 541C200 541 160 541 120 541C80 541 40 541 20 541L0 541Z" fill="#00b8f4"></path><path d="M0 460L20 461.3C40 462.7 80 465.3 120 467.2C160 469 200 470 240 457.3C280 444.7 320 418.3 360 410.5C400 402.7 440 413.3 480 426C520 438.7 560 453.3 600 454.8C640 456.3 680 444.7 720 436.7C760 428.7 800 424.3 840 430.5C880 436.7 920 453.3 940 461.7L960 470L960 541L940 541C920 541 880 541 840 541C800 541 760 541 720 541C680 541 640 541 600 541C560 541 520 541 480 541C440 541 400 541 360 541C320 541 280 541 240 541C200 541 160 541 120 541C80 541 40 541 20 541L0 541Z" fill="#2094f3"></path></svg>