<svg id="visual" viewBox="0 0 900 600" width="900" height="600" xmlns="http://www.w3.org/2000/svg" xmlns:xlink="http://www.w3.org/1999/xlink" version="1.1"><path d="M0 178L21.5 162.3C43 146.7 86 115.3 128.8 122.5C171.7 129.7 214.3 175.3 257.2 178.2C300 181 343 141 385.8 136.3C428.7 131.7 471.3 162.3 514.2 164C557 165.7 600 138.3 642.8 131.5C685.7 124.7 728.3 138.3 771.2 141.8C814 145.3 857 138.7 878.5 135.3L900 132L900 0L878.5 0C857 0 814 0 771.2 0C728.3 0 685.7 0 642.8 0C600 0 557 0 514.2 0C471.3 0 428.7 0 385.8 0C343 0 300 0 257.2 0C214.3 0 171.7 0 128.8 0C86 0 43 0 21.5 0L0 0Z" fill="#2094f3" stroke-linecap="round" stroke-linejoin="miter"></path></svg>